<svg xmlns="http://www.w3.org/2000/svg" viewBox="0 0 512.4 512.4"><path d="M437.3 75a256 256 0 00-362.2 0 256 256 0 000 362.3 256 256 0 00362.2 0 256 256 0 000-362.2zm-10.7 325.8a256.8 256.8 0 00-38.2-28.3c8.9-30.8 14.2-64.7 15.4-100h75.3c-3.4 47.5-21.6 92.1-52.5 128.3zM33.3 272.5h75.3c1.2 35.3 6.5 69.2 15.5 100a256.8 256.8 0 00-38.3 28.3 221.5 221.5 0 01-52.5-128.3zm52.5-160.9c12 10.7 24.8 20.2 38.3 28.3-9 30.8-14.3 64.7-15.5 100H33.3c3.4-47.5 21.6-92 52.5-128.3zm154 31.7a221.8 221.8 0 01-76-19.3c13.8-35.6 39.4-78.4 76-89zm0 32.7V240h-98.5c1-29.8 5.3-58.5 12.3-84.6 27 11.8 56.2 18.8 86.3 20.7zm0 96.5v63.9c-30 1.9-59.1 9-86.2 20.8-7-26.2-11.2-54.9-12.3-84.7zm0 96.6v108.3c-36.6-10.6-62.2-53.4-76-89a221.8 221.8 0 0176-19.3zm32.7 0c26.7 2 52.3 8.5 76.1 19.3-13.8 35.6-39.3 78.4-76 89zm0-32.7v-63.9h98.7a384.6 384.6 0 01-12.4 84.7 254.4 254.4 0 00-86.3-20.8zm0-96.5V176c30.2-1.9 59.2-9 86.3-20.7 7 26.1 11.2 54.8 12.4 84.6zm0-96.6V35.1c36.8 10.5 62.3 53.3 76.1 89a221.8 221.8 0 01-76 19.2zm73.4-92a222.5 222.5 0 0157.8 37c-8.3 7.3-17 14-26.2 20a245.8 245.8 0 00-31.6-57zm-211 57c-9.1-6-17.9-12.7-26.2-20 17.5-15.4 37-27.8 57.9-37a245.8 245.8 0 00-31.6 57zm0 295.9a245.8 245.8 0 0031.7 56.9 222.5 222.5 0 01-57.9-37c8.3-7.3 17.1-14 26.3-20zm242.6 0c9.1 6 17.9 12.6 26.2 20A222.5 222.5 0 01346 461c13-17.2 23.4-36.8 31.6-57zm26.3-164.3a414.3 414.3 0 00-15.4-100 256.8 256.8 0 0038.2-28.3c30.9 36.2 49.1 80.8 52.5 128.3z"/></svg>