<svg width="32" height="32" viewBox="0 0 32 32" fill="none" xmlns="http://www.w3.org/2000/svg">
<g clip-path="url(#clip0_2099_18698)">
<path d="M29.3339 10.6663H21.3339V2.66634M21.3339 10.6663L30.6672 1.33301M29.3339 22.5597V26.5597C29.3354 26.931 29.2593 27.2986 29.1106 27.6388C28.9618 27.979 28.7436 28.2845 28.47 28.5355C28.1964 28.7865 27.8733 28.9777 27.5216 29.0966C27.1698 29.2156 26.7971 29.2598 26.4272 29.2263C22.3243 28.7805 18.3832 27.3785 14.9206 25.133C11.699 23.0859 8.96768 20.3546 6.92056 17.133C4.6672 13.6546 3.26489 9.69433 2.82723 5.57301C2.79391 5.2043 2.83773 4.83269 2.9559 4.48184C3.07406 4.13099 3.26399 3.80859 3.51358 3.53517C3.76318 3.26175 4.06697 3.04329 4.40562 2.8937C4.74426 2.74412 5.11035 2.66669 5.48056 2.66634H9.48056C10.1276 2.65997 10.755 2.88911 11.2456 3.31105C11.7362 3.73299 12.0567 4.31894 12.1472 4.95967C12.3161 6.23976 12.6292 7.49664 13.0806 8.70634C13.26 9.18357 13.2988 9.70223 13.1924 10.2008C13.0861 10.6995 12.839 11.1572 12.4806 11.5197L10.7872 13.213C12.6853 16.5511 15.4492 19.3149 18.7872 21.213L20.4806 19.5197C20.8431 19.1612 21.3008 18.9141 21.7994 18.8078C22.298 18.7015 22.8167 18.7403 23.2939 18.9197C24.5036 19.3711 25.7605 19.6842 27.0406 19.853C27.6883 19.9444 28.2798 20.2706 28.7026 20.7697C29.1254 21.2687 29.3501 21.9058 29.3339 22.5597Z" stroke="#1E1E1E" stroke-width="3" stroke-linecap="round" stroke-linejoin="round"/>
</g>
<defs>
<clipPath id="clip0_2099_18698">
<rect width="32" height="32" fill="white"/>
</clipPath>
</defs>
</svg>
